<svg xmlns="http://www.w3.org/2000/svg" width="410" height="215" viewBox="0 0 410 215" fill="none" role="img" aria-labelledby="title desc">
  <title id="title">language-distribution</title>
  <desc id="desc">Top programming languages by code volume across public non-fork repositories.</desc>
  <style>
    .window-title { font: 500 12px -apple-system, BlinkMacSystemFont, 'Segoe UI', Roboto, sans-serif; fill: #86868b; }
    .label { font: 500 12px ui-monospace, SFMono-Regular, Menlo, Monaco, Consolas, monospace; fill: #a1a1a6; }
    .value { font: 700 14px ui-monospace, SFMono-Regular, Menlo, Monaco, Consolas, monospace; fill: #f5f5f7; }
    .rank-badge { font: 800 14px ui-monospace, SFMono-Regular, Menlo, Monaco, Consolas, monospace; fill: #30d158; }
    .text { font: 600 12px -apple-system, BlinkMacSystemFont, 'Segoe UI', Roboto, sans-serif; fill: #f5f5f7; }
    @media (prefers-color-scheme: light) {
      .win-bg { fill: #ffffff; stroke: #d1d5db; }
      .win-header { fill: #f3f4f6; stroke: #e5e7eb; }
      .window-title { fill: #4b5563; }
      .label { fill: #6b7280; }
      .value { fill: #111827; }
      .rank-badge { fill: #059669; }
      .text { fill: #111827; }
      .divider { stroke: #e5e7eb; }
      .pill-bg { fill: #f3f4f6; stroke: #e5e7eb; }
    }
  </style>

  <!-- Window Container -->
  <rect class="win-bg" x="1" y="1" width="408" height="213" rx="10" fill="#121319" stroke="#2d3139" stroke-width="1.5"/>

  <!-- Titlebar Header -->
  <path class="win-header" d="M 1 11 C 1 5.5 5.5 1 11 1 L 399 1 C 404.5 1 409 5.5 409 11 L 409 36 L 1 36 Z" fill="#1c1e26"/>
  <line class="divider" x1="1" y1="36" x2="409" y2="36" stroke="#262833" stroke-width="1"/>

  <!-- Control Dots -->
  <circle cx="18" cy="18" r="5" fill="#ff5f56" stroke="#e0443e" stroke-width="0.8"/>
  <circle cx="34" cy="18" r="5" fill="#ffbd2e" stroke="#dea123" stroke-width="0.8"/>
  <circle cx="50" cy="18" r="5" fill="#27c93f" stroke="#1aab29" stroke-width="0.8"/>

  <!-- Centered Title -->
  <text class="window-title" x="205" y="22" text-anchor="middle">language-distribution</text>

  <rect x="24" y="52" width="362" height="7" rx="3.5" fill="#1b1e27"/>
  <rect x="24.00" y="52" width="139.19" height="7" fill="#3776AB"/>
  <rect x="163.19" y="52" width="78.60" height="7" fill="#00ADD8"/>
  <rect x="241.79" y="52" width="65.68" height="7" fill="#DA5B0B"/>
  <rect x="307.46" y="52" width="36.26" height="7" fill="#f1e05a"/>
  <rect x="343.72" y="52" width="26.16" height="7" fill="#3178c6"/>
  <circle cx="28" cy="84" r="3.5" fill="#3776AB"/>
  <text x="42" y="88" class="text">Python</text>
  <text x="386" y="88" text-anchor="end" class="label">38.4%</text>
  <circle cx="28" cy="108" r="3.5" fill="#00ADD8"/>
  <text x="42" y="112" class="text">Go</text>
  <text x="386" y="112" text-anchor="end" class="label">21.7%</text>
  <circle cx="28" cy="132" r="3.5" fill="#DA5B0B"/>
  <text x="42" y="136" class="text">Jupyter Notebook</text>
  <text x="386" y="136" text-anchor="end" class="label">18.1%</text>
  <circle cx="28" cy="156" r="3.5" fill="#f1e05a"/>
  <text x="42" y="160" class="text">JavaScript</text>
  <text x="386" y="160" text-anchor="end" class="label">10.0%</text>
  <circle cx="28" cy="180" r="3.5" fill="#3178c6"/>
  <text x="42" y="184" class="text">TypeScript</text>
  <text x="386" y="184" text-anchor="end" class="label">7.2%</text>
</svg>
